REM MD5 9c4dd2db1ad483280d7b33ddfe9269c3
FILE "One (Europe) (En,Fr,De,Es,It).bin" BINARY
  TRACK 01 MODE2/2352
    INDEX 01 00:00:00
  TRACK 02 AUDIO
    INDEX 00 05:55:31
    INDEX 01 05:57:31
  TRACK 03 AUDIO
    INDEX 00 06:47:56
    INDEX 01 06:49:56
  TRACK 04 AUDIO
    INDEX 00 08:47:54
    INDEX 01 08:49:54
  TRACK 05 AUDIO
    INDEX 00 09:20:40
    INDEX 01 09:22:40
REM LEADOUT 12:23:43
